<?xml version="1.0" encoding="utf-8"?>
<!-- Generator: Adobe Illustrator 24.2.3, SVG Export Plug-In . SVG Version: 6.00 Build 0)  -->
<svg version="1.1" baseProfile="tiny" id="Layer_1" xmlns="http://www.w3.org/2000/svg" xmlns:xlink="http://www.w3.org/1999/xlink"
	 x="0px" y="0px" viewBox="0 0 41 50" overflow="visible" xml:space="preserve">
<g>
	<path fill="#F4F4F4" d="M20,50c-0.4-0.2-0.9-0.3-1.2-0.6c-1-0.7-1.3-1.6-1.3-2.7c0-2.9,0-5.9,0-8.8c0-8.1,0-16.2,0-24.4
		c0-0.6,0-1.3-0.7-1.6c-0.7-0.3-1.2,0.2-1.6,0.6c-3.3,3.3-6.6,6.6-9.9,9.9c-1.2,1.2-2.9,1.3-4.2,0.3c-1.2-1-1.4-2.8-0.5-4
		c0.2-0.2,0.4-0.4,0.5-0.6C6.8,12.4,12.5,6.7,18.2,1c0.5-0.5,1-0.9,1.7-1c0.4,0,0.8,0,1.2,0c0.7,0.1,1.3,0.5,1.8,1
		c5.7,5.7,11.4,11.4,17,17.1c1.3,1.3,1.5,3,0.4,4.2c-1,1.2-2.8,1.4-4.1,0.5c-0.2-0.2-0.4-0.4-0.7-0.6c-3.3-3.3-6.6-6.6-9.8-9.8
		c-0.1-0.1-0.3-0.3-0.5-0.4c-0.7-0.4-1.6,0-1.7,0.8c0,0.2,0,0.4,0,0.6c0,11.1,0,22.2,0,33.2c0,1.3-0.5,2.4-1.7,3
		c-0.3,0.1-0.5,0.2-0.8,0.3C20.7,50,20.3,50,20,50z"/>
</g>
</svg>
